# Blender v2.93.5 OBJ File: 'Sketchfab_2019_10_18_19_38_00.blend'
# www.blender.org
mtllib skybox.mtl
o Cube
v 10.000000 10.000002 -9.999998
v -10.000000 10.000002 -9.999998
v -10.000000 9.999998 10.000002
v 10.000000 9.999998 10.000002
v 10.000000 -10.000002 9.999998
v -10.000000 -10.000002 9.999998
v -10.000000 -9.999998 -10.000002
v 10.000000 -9.999998 -10.000002
vt 0.498722 0.668015
vt 0.498722 0.998897
vt 0.250935 0.998897
vt 0.250935 0.668015
vt 0.250935 0.338971
vt 0.007426 0.668015
vt 0.008126 0.338971
vt 0.982163 0.338971
vt 0.981463 0.668015
vt 0.742231 0.668015
vt 0.742231 0.338971
vt 0.498722 0.008088
vt 0.498722 0.338971
vt 0.251635 0.008088
vn 0.0000 1.0000 0.0000
vn 0.0000 -0.0000 1.0000
vn -1.0000 -0.0000 0.0000
vn 0.0000 -1.0000 -0.0000
vn 1.0000 0.0000 0.0000
vn 0.0000 0.0000 -1.0000
usemtl Material.002
s 1
f 1/1/1 2/2/1 3/3/1 4/4/1
f 5/5/2 4/4/2 3/6/2 6/7/2
f 6/8/3 3/9/3 2/10/3 7/11/3
f 7/12/4 8/13/4 5/5/4 6/14/4
f 8/13/5 1/1/5 4/4/5 5/5/5
f 7/11/6 2/10/6 1/1/6 8/13/6
